<?xml version="1.0" standalone="no"?>
<!DOCTYPE svg PUBLIC "-//W3C//DTD SVG 20010904//EN"
 "http://www.w3.org/TR/2001/REC-SVG-20010904/DTD/svg10.dtd">
<svg version="1.0" xmlns="http://www.w3.org/2000/svg"
 width="500.000000pt" height="500.000000pt" viewBox="0 0 500.000000 500.000000"
 preserveAspectRatio="xMidYMid meet">
<metadata>
Created by potrace 1.11, written by Peter Selinger 2001-2013
</metadata>
<g transform="translate(0.000000,500.000000) scale(0.100000,-0.100000)"
fill="#000000" stroke="none">
<path d="M1043 4033 c-73 -126 -135 -236 -138 -245 -6 -16 1 -18 73 -18 l80 0
110 198 c61 108 122 218 137 245 l27 47 -79 0 -79 0 -131 -227z"/>
<path d="M1044 3468 c-253 -435 -460 -797 -462 -804 -2 -7 39 -87 91 -176 52
-90 196 -340 321 -556 125 -215 225 -395 223 -400 -2 -4 -113 -194 -245 -423
-133 -229 -242 -420 -242 -425 0 -9 402 -244 416 -244 5 0 88 137 185 303
l176 302 929 5 928 5 82 140 c44 77 193 334 329 570 137 237 308 534 382 662
l134 231 -463 801 -462 801 -932 0 -932 0 -458 -792z m2267 -100 c128 -222
273 -472 321 -557 l89 -153 -323 -559 -323 -559 -644 2 -643 3 -323 555 -322
555 31 56 c17 30 162 281 321 557 l290 501 647 1 646 0 233 -402z"/>
<path d="M1633 2858 c2 -7 29 -79 58 -160 l54 -148 55 0 c30 0 60 4 66 8 6 4
32 63 57 132 25 69 50 138 56 153 l11 28 -62 -3 -61 -3 -24 -75 c-12 -41 -23
-84 -24 -95 0 -11 -9 5 -20 35 -10 30 -26 74 -35 98 l-16 42 -60 0 c-44 0 -59
-3 -55 -12z"/>
<path d="M2000 2710 l0 -160 60 0 60 0 0 65 0 65 50 0 50 0 0 35 0 35 -50 0
-50 0 0 60 0 60 -60 0 -60 0 0 -160z"/>
<path d="M2130 2835 c0 -32 3 -35 29 -35 16 0 31 -6 35 -15 4 -11 21 -15 61
-15 l55 0 0 50 0 50 -90 0 -90 0 0 -35z"/>
<path d="M2350 2710 l0 -160 60 0 60 0 0 49 c0 45 1 48 23 44 16 -3 31 -19 45
-49 l22 -44 60 0 c33 0 60 3 60 6 0 3 -12 28 -27 55 l-27 48 22 24 c34 36 31
121 -5 159 -27 28 -27 28 -160 28 l-133 0 0 -160z m210 44 l0 -44 -45 0 -45 0
0 48 0 47 45 -3 45 -4 0 -44z"/>
<path d="M2820 2860 c0 -6 -3 -9 -8 -6 -6 3 -59 -127 -120 -291 -3 -10 11 -13
53 -13 46 0 58 3 61 18 4 14 15 16 65 14 40 -3 62 -9 66 -18 4 -10 23 -14 64
-14 32 0 59 1 59 3 0 1 -29 72 -63 157 l-64 155 -56 3 c-37 2 -57 -1 -57 -8z
m79 -202 c1 -5 -12 -8 -29 -8 -34 0 -34 -1 -18 53 l12 40 17 -39 c10 -21 18
-42 18 -46z"/>
<path d="M3072 2832 l3 -37 68 0 c37 0 67 -1 67 -3 0 -2 -31 -42 -70 -88 -56
-68 -70 -92 -70 -119 l0 -34 146 0 145 -1 -3 37 -3 38 -68 5 -68 5 71 85 c55
66 70 92 70 117 l0 32 -146 0 -145 1 3 -38z"/>
<path d="M2190 2635 c0 -10 -10 -15 -30 -15 -28 0 -30 -3 -30 -35 l0 -35 90 0
90 0 0 50 0 50 -60 0 c-47 0 -60 -3 -60 -15z"/>
<path d="M4099 3327 l-36 -64 141 -236 c78 -130 145 -235 150 -234 4 2 22 28
39 58 l31 56 -133 226 c-73 124 -138 232 -144 241 -10 13 -17 6 -48 -47z"/>
<path d="M1670 808 c17 -29 34 -59 38 -66 6 -9 71 -12 290 -10 l281 3 -35 63
-35 62 -285 0 -284 0 30 -52z"/>
</g>
</svg>
